<svg width="267" height="106" xmlns="http://www.w3.org/2000/svg"><g transform="translate(0, 29)" fill-rule="nonzero" fill="none"><path d="M25.467 66.214a7.685 7.685 0 0 0 6.96 0L51.823 56.11a7.522 7.522 0 0 0 4.072-6.7V25.866a7.466 7.466 0 0 0-4.072-6.663L32.427 9.098a7.464 7.464 0 0 0-6.96 0L6.071 19.203a7.466 7.466 0 0 0-4.072 6.663V49.41a7.522 7.522 0 0 0 4.072 6.7l19.396 10.105Zm5.33-2.813a4.273 4.273 0 0 1-3.849-.074L7.551 53.258l-.148-.074A4.4 4.4 0 0 1 5.22 49.41v-23.69c.074-1.556.963-2.962 2.332-3.666l19.397-10.105.148-.074a4.52 4.52 0 0 1 3.85.074l19.397 10.105.148.075c1.332.74 2.184 2.183 2.184 3.775v23.654c-.037 1.555-.963 2.961-2.332 3.701L30.946 63.327l-.148.074Zm.815-13.289c.37 0 .704-.296.74-.666l1.037-11.55h7.033c.185 0 .37-.11.444-.296.074-.148.037-.333-.074-.48L29.021 23.792 17.25 37.12c-.111.148-.148.333-.074.481.074.186.259.297.444.297h7.033l1.037 11.549c.037.37.37.666.74.666h5.182Zm42.385 1.814a9.59 9.59 0 0 0 4.516-1.11c1.407-.704 2.517-1.666 3.443-2.85l.037 3.257h4.33l-.036-25.801h-4.331v15.066c0 1.295-.333 2.48-.926 3.553-.666 1.037-1.517 1.925-2.554 2.555a7.261 7.261 0 0 1-3.553.925 7.261 7.261 0 0 1-3.554-.925c-1.073-.63-1.925-1.518-2.554-2.555-.666-1.073-.963-2.258-.963-3.553V25.422h-4.33V41.45c0 1.925.444 3.702 1.406 5.257.926 1.591 2.184 2.85 3.776 3.812 1.592.926 3.331 1.407 5.293 1.407Zm21.064 9.587V46.818a10.323 10.323 0 0 0 3.48 3.664c1.48.963 3.22 1.407 5.219 1.407 1.887 0 3.627-.333 5.293-1.037a13.876 13.876 0 0 0 4.33-2.96c1.222-1.222 2.185-2.666 2.888-4.332a13.394 13.394 0 0 0 1.074-5.293c0-1.888-.37-3.628-1.074-5.257-.703-1.628-1.666-3.072-2.887-4.294a13.766 13.766 0 0 0-4.331-2.924 13.394 13.394 0 0 0-5.293-1.073c-2 0-3.74.48-5.22 1.406-1.443.963-2.628 2.184-3.48 3.702v-4.405h-4.33v36.091h4.33Zm8.662-13.844c-1.703 0-3.147-.444-4.405-1.259-1.259-.851-2.221-1.998-2.888-3.405a11.108 11.108 0 0 1-1.036-4.738c0-1.74.37-3.295 1.036-4.701a8.115 8.115 0 0 1 2.888-3.406c1.258-.814 2.739-1.221 4.405-1.221 1.702 0 3.257.407 4.627 1.221a9.473 9.473 0 0 1 3.331 3.406c.852 1.406 1.259 2.998 1.259 4.7a9.479 9.479 0 0 1-1.259 4.776c-.851 1.407-1.962 2.554-3.368 3.368-1.407.852-2.925 1.259-4.59 1.259Zm21.951 3.554V17.537h-4.33v33.686h4.33Zm17.325.666c1.777 0 3.443-.37 4.997-1.037a13.614 13.614 0 0 0 4.11-2.924 13.988 13.988 0 0 0 2.776-4.33c.703-1.63 1.036-3.406 1.036-5.257 0-2.517-.592-4.812-1.777-6.885-1.147-2.036-2.702-3.702-4.664-4.924-1.962-1.221-4.109-1.813-6.478-1.813-1.814 0-3.442.333-5.034 1.036a14.088 14.088 0 0 0-4.109 2.924c-1.147 1.259-2.11 2.703-2.776 4.331-.666 1.63-.963 3.406-.963 5.33 0 2.48.556 4.776 1.74 6.812 1.148 2.036 2.702 3.702 4.664 4.923 1.925 1.222 4.11 1.814 6.478 1.814Zm0-4.331a7.937 7.937 0 0 1-4.294-1.222c-1.295-.814-2.332-1.924-3.11-3.331-.777-1.37-1.147-2.961-1.147-4.664 0-1.703.333-3.22 1.11-4.627a9.089 9.089 0 0 1 3.073-3.406c1.259-.851 2.74-1.258 4.368-1.258 1.592 0 3.036.407 4.331 1.258a9.63 9.63 0 0 1 3.072 3.369c.778 1.406 1.148 2.961 1.148 4.664 0 1.666-.37 3.183-1.11 4.59a9.266 9.266 0 0 1-3.073 3.368c-1.295.852-2.776 1.259-4.368 1.259Zm29.133 4.33c1.925 0 3.628-.443 5.034-1.369 1.37-.888 2.407-2.036 3.22-3.405l.149-.26.185 4.369h4.331V25.422h-4.33l.147 4.405c-.962-1.48-2.184-2.74-3.739-3.702-1.517-.925-3.294-1.406-5.33-1.406-1.85 0-3.59.333-5.22 1.036a13.971 13.971 0 0 0-4.256 2.887c-1.222 1.222-2.184 2.666-2.887 4.294-.667 1.63-1 3.369-1 5.22 0 1.888.333 3.664 1.037 5.33a13.62 13.62 0 0 0 2.96 4.368 13.62 13.62 0 0 0 4.369 2.961 13.442 13.442 0 0 0 5.33 1.074Zm-.11-4.182c-1.63 0-3.147-.444-4.554-1.259-1.406-.85-2.517-1.961-3.331-3.368a9.11 9.11 0 0 1-1.296-4.738c0-1.74.407-3.332 1.222-4.738.851-1.444 1.924-2.554 3.331-3.406 1.407-.851 2.924-1.258 4.627-1.258 1.703 0 3.184.407 4.405 1.258 1.259.815 2.221 1.962 2.924 3.369.667 1.406 1 2.998 1 4.775 0 1.703-.333 3.294-1 4.7a8.115 8.115 0 0 1-2.887 3.406c-1.258.815-2.74 1.259-4.442 1.259Zm29.725 4.183c1.961 0 3.701-.444 5.182-1.37 1.48-.962 2.665-2.184 3.516-3.664v4.368h4.331V17.537h-4.33V29.79a10.113 10.113 0 0 0-3.517-3.665c-1.48-.925-3.22-1.406-5.182-1.406-1.888 0-3.665.407-5.294 1.073-1.629.703-3.072 1.703-4.33 2.924a13.517 13.517 0 0 0-2.925 4.368c-.703 1.63-1.037 3.369-1.037 5.257 0 1.85.334 3.59 1.037 5.256.703 1.629 1.666 3.073 2.924 4.294 1.259 1.259 2.702 2.221 4.331 2.961 1.629.704 3.406 1.037 5.294 1.037Zm0-4.183c-1.63 0-3.147-.444-4.554-1.259a10 10 0 0 1-3.331-3.368 9.11 9.11 0 0 1-1.296-4.738c0-1.74.445-3.332 1.259-4.738.851-1.444 1.925-2.554 3.294-3.369 1.407-.888 2.925-1.295 4.628-1.295 1.74 0 3.183.407 4.442 1.258 1.221.815 2.183 1.962 2.887 3.369.703 1.443 1.036 3.035 1.036 4.775 0 1.74-.333 3.294-1.036 4.738a8.242 8.242 0 0 1-2.887 3.368c-1.26.815-2.703 1.259-4.442 1.259Zm30.317 4.183c2.554 0 4.886-.74 6.96-2.184 1.998-1.407 3.516-3.147 4.552-5.368l.111-.259-4.405-1.036c-.777 1.407-1.813 2.48-3.035 3.331a7.85 7.85 0 0 1-4.183 1.185c-1.48 0-2.776-.37-3.96-1.037-1.185-.703-2.148-1.591-2.888-2.739a9.18 9.18 0 0 1-1.407-3.627l-.037-.26h21.026a16.489 16.489 0 0 0-.63-5.922c-.592-1.814-1.443-3.406-2.59-4.812-1.185-1.407-2.592-2.517-4.183-3.295-1.63-.777-3.406-1.147-5.33-1.147-1.815 0-3.48.333-5.035 1.036a12.835 12.835 0 0 0-4.109 2.924 13.988 13.988 0 0 0-2.776 4.331c-.667 1.666-1 3.406-1 5.33 0 2.48.593 4.739 1.74 6.775 1.148 2.073 2.74 3.739 4.664 4.923 1.962 1.222 4.109 1.85 6.515 1.85Zm8.366-15.399H223.66c.185-1.48.667-2.813 1.444-3.998a9.069 9.069 0 0 1 2.961-2.85c1.185-.74 2.517-1.074 3.998-1.074 1.444 0 2.74.37 3.96 1.11a8.835 8.835 0 0 1 3 2.851c.814 1.185 1.258 2.517 1.406 3.961Zm13.105 14.733V36.157c0-1.296.333-2.48.962-3.554.63-1.073 1.48-1.925 2.554-2.59 1.074-.63 2.258-.926 3.554-.926.666 0 1.37.11 2.073.333l1.777-4.331a11.15 11.15 0 0 0-2.925-.407c-1.628 0-3.146.37-4.516 1.073-1.406.74-2.554 1.666-3.48 2.887v-3.22h-4.33v25.8h4.33Z" stroke="#3E495D" stroke-width=".552" fill="#525862"/><path d="M62.65 5.513c.394 0 .717-.126.97-.38.253-.252.38-.564.38-.935 0-.348-.13-.638-.388-.868-.259-.23-.58-.346-.961-.346-.383 0-.703.121-.961.363a1.184 1.184 0 0 0-.388.902c0 .36.13.66.388.902.258.241.578.362.96.362ZM60.578 19.39c.989 0 1.759-.287 2.31-.86.55-.573.826-1.36.826-2.36V6.997h-2.108v9.222c0 .472-.104.83-.312 1.07-.208.242-.508.363-.902.363-.505 0-.916-.118-1.23-.354l-.607 1.568c.46.349 1.135.523 2.023.523Zm14.702-.118V6.997h-2.007v1.18a3.26 3.26 0 0 0-1.29-.961 4.355 4.355 0 0 0-1.694-.32c-.877 0-1.658.19-2.343.573a4.15 4.15 0 0 0-1.619 1.618c-.393.697-.59 1.501-.59 2.411 0 .922.194 1.731.582 2.428a4.077 4.077 0 0 0 1.618 1.619c.691.382 1.475.573 2.352.573 1.214 0 2.175-.405 2.883-1.214v4.367h2.108Zm-4.755-4.957c-.775 0-1.413-.259-1.913-.776s-.75-1.197-.75-2.04.25-1.523.75-2.04c.5-.517 1.138-.775 1.913-.775.776 0 1.416.258 1.922.775s.759 1.197.759 2.04-.253 1.523-.759 2.04c-.506.517-1.146.776-1.922.776Zm11.33 1.804c.585 0 1.13-.11 1.635-.329.506-.219.928-.53 1.265-.935V16h2.006V6.997h-2.107v4.552c0 .877-.222 1.548-.666 2.015-.444.466-1.043.7-1.796.7-.674 0-1.194-.2-1.56-.6-.365-.398-.547-1.002-.547-1.812V6.997h-2.108v5.142c0 1.315.346 2.307 1.037 2.976s1.638 1.003 2.841 1.003Zm11.903 0c.776 0 1.473-.124 2.09-.37a3.675 3.675 0 0 0 1.518-1.097l-1.113-1.298c-.652.652-1.466.978-2.444.978-.663 0-1.231-.135-1.703-.405a2.353 2.353 0 0 1-1.029-1.18l6.896-1.349c0-.91-.202-1.705-.607-2.385a4.122 4.122 0 0 0-1.644-1.568c-.691-.366-1.458-.548-2.301-.548-.888 0-1.683.196-2.386.59a4.261 4.261 0 0 0-1.652 1.644c-.399.702-.599 1.492-.599 2.368 0 .888.206 1.684.616 2.386a4.25 4.25 0 0 0 1.745 1.644c.753.393 1.624.59 2.613.59Zm-2.933-4.72v-.018c0-.854.238-1.534.716-2.04.478-.505 1.104-.758 1.88-.758.63 0 1.166.168 1.61.505.444.338.74.782.885 1.332l-5.091.978ZM102.103 16v-4.367c0-.899.23-1.587.691-2.065.46-.478 1.102-.717 1.922-.717.146 0 .31.017.489.051V6.896c-1.529 0-2.596.472-3.203 1.416V6.997h-2.007V16h2.108Zm9.02 3.389c3.113 0 4.67-1.585 4.67-4.755V6.997h-2.107v4.046c0 .877-.222 1.546-.666 2.007-.444.46-1.043.69-1.796.69-.674 0-1.194-.199-1.56-.598-.365-.399-.548-.997-.548-1.795v-4.35h-2.107v4.62c0 1.326.346 2.32 1.037 2.984.691.663 1.638.994 2.84.994a4.12 4.12 0 0 0 1.569-.295 3.34 3.34 0 0 0 1.23-.851v.421c0 .922-.216 1.605-.649 2.049-.432.444-1.11.666-2.031.666a5.26 5.26 0 0 1-1.737-.287 4.304 4.304 0 0 1-1.4-.775l-.943 1.584c.483.416 1.098.734 1.846.953.747.22 1.531.329 2.352.329Z" fill="#88909E"/></g></svg>
