<svg width="267" height="100" xmlns="http://www.w3.org/2000/svg"><g transform="translate(0, 29)" fill-rule="nonzero" fill="none"><path d="M25.467 66.214a7.685 7.685 0 0 0 6.96 0L51.823 56.11a7.522 7.522 0 0 0 4.072-6.7V25.866a7.466 7.466 0 0 0-4.072-6.663L32.427 9.098a7.464 7.464 0 0 0-6.96 0L6.071 19.203a7.466 7.466 0 0 0-4.072 6.663V49.41a7.522 7.522 0 0 0 4.072 6.7l19.396 10.105Zm5.33-2.813a4.273 4.273 0 0 1-3.849-.074L7.551 53.258l-.148-.074A4.4 4.4 0 0 1 5.22 49.41v-23.69c.074-1.556.963-2.962 2.332-3.666l19.397-10.105.148-.074a4.52 4.52 0 0 1 3.85.074l19.397 10.105.148.075c1.332.74 2.184 2.183 2.184 3.775v23.654c-.037 1.555-.963 2.961-2.332 3.701L30.946 63.327l-.148.074Zm.815-13.289c.37 0 .704-.296.74-.666l1.037-11.55h7.033c.185 0 .37-.11.444-.296.074-.148.037-.333-.074-.48L29.021 23.792 17.25 37.12c-.111.148-.148.333-.074.481.074.186.259.297.444.297h7.033l1.037 11.549c.037.37.37.666.74.666h5.182Zm42.385 1.814a9.59 9.59 0 0 0 4.516-1.11c1.407-.704 2.517-1.666 3.443-2.85l.037 3.257h4.33l-.036-25.801h-4.331v15.066c0 1.295-.333 2.48-.926 3.553-.666 1.037-1.517 1.925-2.554 2.555a7.261 7.261 0 0 1-3.553.925 7.261 7.261 0 0 1-3.554-.925c-1.073-.63-1.925-1.518-2.554-2.555-.666-1.073-.963-2.258-.963-3.553V25.422h-4.33V41.45c0 1.925.444 3.702 1.406 5.257.926 1.591 2.184 2.85 3.776 3.812 1.592.926 3.331 1.407 5.293 1.407Zm21.064 9.587V46.818a10.323 10.323 0 0 0 3.48 3.664c1.48.963 3.22 1.407 5.219 1.407 1.887 0 3.627-.333 5.293-1.037a13.876 13.876 0 0 0 4.33-2.96c1.222-1.222 2.185-2.666 2.888-4.332a13.394 13.394 0 0 0 1.074-5.293c0-1.888-.37-3.628-1.074-5.257-.703-1.628-1.666-3.072-2.887-4.294a13.766 13.766 0 0 0-4.331-2.924 13.394 13.394 0 0 0-5.293-1.073c-2 0-3.74.48-5.22 1.406-1.443.963-2.628 2.184-3.48 3.702v-4.405h-4.33v36.091h4.33Zm8.662-13.844c-1.703 0-3.147-.444-4.405-1.259-1.259-.851-2.221-1.998-2.888-3.405a11.108 11.108 0 0 1-1.036-4.738c0-1.74.37-3.295 1.036-4.701a8.115 8.115 0 0 1 2.888-3.406c1.258-.814 2.739-1.221 4.405-1.221 1.702 0 3.257.407 4.627 1.221a9.473 9.473 0 0 1 3.331 3.406c.852 1.406 1.259 2.998 1.259 4.7a9.479 9.479 0 0 1-1.259 4.776c-.851 1.407-1.962 2.554-3.368 3.368-1.407.852-2.925 1.259-4.59 1.259Zm21.951 3.554V17.537h-4.33v33.686h4.33Zm17.325.666c1.777 0 3.443-.37 4.997-1.037a13.614 13.614 0 0 0 4.11-2.924 13.988 13.988 0 0 0 2.776-4.33c.703-1.63 1.036-3.406 1.036-5.257 0-2.517-.592-4.812-1.777-6.885-1.147-2.036-2.702-3.702-4.664-4.924-1.962-1.221-4.109-1.813-6.478-1.813-1.814 0-3.442.333-5.034 1.036a14.088 14.088 0 0 0-4.109 2.924c-1.147 1.259-2.11 2.703-2.776 4.331-.666 1.63-.963 3.406-.963 5.33 0 2.48.556 4.776 1.74 6.812 1.148 2.036 2.702 3.702 4.664 4.923 1.925 1.222 4.11 1.814 6.478 1.814Zm0-4.331a7.937 7.937 0 0 1-4.294-1.222c-1.295-.814-2.332-1.924-3.11-3.331-.777-1.37-1.147-2.961-1.147-4.664 0-1.703.333-3.22 1.11-4.627a9.089 9.089 0 0 1 3.073-3.406c1.259-.851 2.74-1.258 4.368-1.258 1.592 0 3.036.407 4.331 1.258a9.63 9.63 0 0 1 3.072 3.369c.778 1.406 1.148 2.961 1.148 4.664 0 1.666-.37 3.183-1.11 4.59a9.266 9.266 0 0 1-3.073 3.368c-1.295.852-2.776 1.259-4.368 1.259Zm29.133 4.33c1.925 0 3.628-.443 5.034-1.369 1.37-.888 2.407-2.036 3.22-3.405l.149-.26.185 4.369h4.331V25.422h-4.33l.147 4.405c-.962-1.48-2.184-2.74-3.739-3.702-1.517-.925-3.294-1.406-5.33-1.406-1.85 0-3.59.333-5.22 1.036a13.971 13.971 0 0 0-4.256 2.887c-1.222 1.222-2.184 2.666-2.887 4.294-.667 1.63-1 3.369-1 5.22 0 1.888.333 3.664 1.037 5.33a13.62 13.62 0 0 0 2.96 4.368 13.62 13.62 0 0 0 4.369 2.961 13.442 13.442 0 0 0 5.33 1.074Zm-.11-4.182c-1.63 0-3.147-.444-4.554-1.259-1.406-.85-2.517-1.961-3.331-3.368a9.11 9.11 0 0 1-1.296-4.738c0-1.74.407-3.332 1.222-4.738.851-1.444 1.924-2.554 3.331-3.406 1.407-.851 2.924-1.258 4.627-1.258 1.703 0 3.184.407 4.405 1.258 1.259.815 2.221 1.962 2.924 3.369.667 1.406 1 2.998 1 4.775 0 1.703-.333 3.294-1 4.7a8.115 8.115 0 0 1-2.887 3.406c-1.258.815-2.74 1.259-4.442 1.259Zm29.725 4.183c1.961 0 3.701-.444 5.182-1.37 1.48-.962 2.665-2.184 3.516-3.664v4.368h4.331V17.537h-4.33V29.79a10.113 10.113 0 0 0-3.517-3.665c-1.48-.925-3.22-1.406-5.182-1.406-1.888 0-3.665.407-5.294 1.073-1.629.703-3.072 1.703-4.33 2.924a13.517 13.517 0 0 0-2.925 4.368c-.703 1.63-1.037 3.369-1.037 5.257 0 1.85.334 3.59 1.037 5.256.703 1.629 1.666 3.073 2.924 4.294 1.259 1.259 2.702 2.221 4.331 2.961 1.629.704 3.406 1.037 5.294 1.037Zm0-4.183c-1.63 0-3.147-.444-4.554-1.259a10 10 0 0 1-3.331-3.368 9.11 9.11 0 0 1-1.296-4.738c0-1.74.445-3.332 1.259-4.738.851-1.444 1.925-2.554 3.294-3.369 1.407-.888 2.925-1.295 4.628-1.295 1.74 0 3.183.407 4.442 1.258 1.221.815 2.183 1.962 2.887 3.369.703 1.443 1.036 3.035 1.036 4.775 0 1.74-.333 3.294-1.036 4.738a8.242 8.242 0 0 1-2.887 3.368c-1.26.815-2.703 1.259-4.442 1.259Zm30.317 4.183c2.554 0 4.886-.74 6.96-2.184 1.998-1.407 3.516-3.147 4.552-5.368l.111-.259-4.405-1.036c-.777 1.407-1.813 2.48-3.035 3.331a7.85 7.85 0 0 1-4.183 1.185c-1.48 0-2.776-.37-3.96-1.037-1.185-.703-2.148-1.591-2.888-2.739a9.18 9.18 0 0 1-1.407-3.627l-.037-.26h21.026a16.489 16.489 0 0 0-.63-5.922c-.592-1.814-1.443-3.406-2.59-4.812-1.185-1.407-2.592-2.517-4.183-3.295-1.63-.777-3.406-1.147-5.33-1.147-1.815 0-3.48.333-5.035 1.036a12.835 12.835 0 0 0-4.109 2.924 13.988 13.988 0 0 0-2.776 4.331c-.667 1.666-1 3.406-1 5.33 0 2.48.593 4.739 1.74 6.775 1.148 2.073 2.74 3.739 4.664 4.923 1.962 1.222 4.109 1.85 6.515 1.85Zm8.366-15.399H223.66c.185-1.48.667-2.813 1.444-3.998a9.069 9.069 0 0 1 2.961-2.85c1.185-.74 2.517-1.074 3.998-1.074 1.444 0 2.74.37 3.96 1.11a8.835 8.835 0 0 1 3 2.851c.814 1.185 1.258 2.517 1.406 3.961Zm13.105 14.733V36.157c0-1.296.333-2.48.962-3.554.63-1.073 1.48-1.925 2.554-2.59 1.074-.63 2.258-.926 3.554-.926.666 0 1.37.11 2.073.333l1.777-4.331a11.15 11.15 0 0 0-2.925-.407c-1.628 0-3.146.37-4.516 1.073-1.406.74-2.554 1.666-3.48 2.887v-3.22h-4.33v25.8h4.33Z" stroke="#3E495D" stroke-width=".552" fill="#525862"/><path d="M62.55 5.345c.314 0 .576-.104.783-.312.208-.208.312-.464.312-.767a.968.968 0 0 0-.312-.734 1.096 1.096 0 0 0-.784-.295c-.314 0-.576.104-.784.312a1.023 1.023 0 0 0-.311.75c0 .292.104.54.311.742.208.202.47.304.784.304Zm-2.04 14.027c.91 0 1.612-.264 2.107-.792.494-.529.742-1.254.742-2.175v-9.34H61.74v9.373c0 .517-.115.908-.345 1.172-.23.264-.56.396-.987.396-.54 0-.978-.14-1.315-.421l-.522 1.247c.224.18.505.315.843.405.337.09.702.135 1.095.135Zm14.364-.101V7.064h-1.551V8.48a3.436 3.436 0 0 0-1.366-1.12 4.311 4.311 0 0 0-1.82-.38c-.866 0-1.642.191-2.327.573a4.123 4.123 0 0 0-1.61 1.602c-.388.686-.582 1.478-.582 2.377 0 .9.194 1.695.582 2.386a4.107 4.107 0 0 0 1.61 1.61c.685.382 1.46.573 2.326.573.641 0 1.228-.123 1.762-.37a3.665 3.665 0 0 0 1.357-1.08v4.62h1.619Zm-4.603-4.586a3.017 3.017 0 0 1-1.542-.396 2.855 2.855 0 0 1-1.08-1.113c-.264-.478-.396-1.026-.396-1.644 0-.618.132-1.166.397-1.644a2.796 2.796 0 0 1 1.079-1.104c.455-.259.97-.388 1.542-.388.562 0 1.07.132 1.526.396a2.87 2.87 0 0 1 1.08 1.105c.263.472.395 1.017.395 1.635 0 .618-.129 1.166-.387 1.644a2.78 2.78 0 0 1-1.08 1.113 3.03 3.03 0 0 1-1.534.396ZM81.702 16.1c.63 0 1.211-.126 1.745-.38.534-.252.964-.609 1.29-1.07V16h1.534V7.064h-1.618v4.62c0 .944-.247 1.675-.742 2.192-.495.517-1.169.775-2.023.775-.776 0-1.372-.222-1.787-.666-.416-.444-.624-1.098-.624-1.964V7.064h-1.619v5.143c0 1.28.343 2.25 1.029 2.908.685.657 1.624.986 2.815.986Zm11.634 0c.741 0 1.413-.123 2.014-.37a3.774 3.774 0 0 0 1.492-1.08l-.876-1.045c-.652.72-1.512 1.079-2.58 1.079-.753 0-1.396-.169-1.93-.506a2.756 2.756 0 0 1-1.138-1.433l7.098-1.382c-.012-.866-.214-1.63-.607-2.293a4.135 4.135 0 0 0-1.585-1.543 4.5 4.5 0 0 0-2.209-.548c-.854 0-1.621.194-2.301.582-.68.387-1.214.93-1.602 1.627-.388.696-.581 1.478-.581 2.343 0 .877.2 1.664.598 2.36.4.697.964 1.24 1.695 1.627.73.388 1.567.582 2.512.582Zm-3.237-4.485v-.168c0-.618.123-1.16.37-1.627a2.686 2.686 0 0 1 1.037-1.088 2.943 2.943 0 0 1 1.51-.387c.707 0 1.314.202 1.82.607.506.404.832.932.978 1.584l-5.715 1.08ZM101.293 16v-4.451c0-.967.25-1.711.75-2.234.5-.523 1.19-.784 2.066-.784.157 0 .281.006.371.017V6.98c-.787 0-1.456.135-2.006.405-.551.27-.967.663-1.248 1.18v-1.5h-1.551V16h1.618Zm9.24 3.372c1.46 0 2.557-.374 3.287-1.121.731-.748 1.096-1.903 1.096-3.465V7.064h-1.618v4.148c0 .944-.248 1.675-.742 2.192-.495.517-1.169.775-2.023.775-.776 0-1.372-.222-1.787-.666-.416-.444-.624-1.093-.624-1.947V7.064h-1.619v4.687c0 1.282.343 2.248 1.029 2.9.685.652 1.624.978 2.815.978.607 0 1.17-.115 1.686-.346.517-.23.939-.559 1.265-.986v.658c0 1.011-.23 1.762-.692 2.25-.46.49-1.18.734-2.158.734a5.115 5.115 0 0 1-1.761-.304 4.22 4.22 0 0 1-1.425-.843l-.793 1.248c.461.427 1.054.756 1.78.986.724.23 1.486.346 2.284.346Z" fill="#88909E"/></g></svg>
